<svg xmlns="http://www.w3.org/2000/svg" width="960" height="520" viewBox="0 0 960 520">
  <rect width="100%" height="100%" fill="#ffffff"/>
  <style>
    text { font-family: Arial, sans-serif; fill: #212529; }
    .title { font-size: 24px; font-weight: 700; }
    .label { font-size: 14px; }
    .small { font-size: 12px; fill: #495057; }
    .axis { stroke: #495057; stroke-width: 1; }
    .grid { stroke: #dee2e6; stroke-width: 1; }
  </style>
<text x="480.0" y="40" text-anchor="middle" class="title">Average Score and Stone Difference</text>
<line x1="75" y1="415.0" x2="465" y2="415.0" class="grid"/>
<text x="65" y="419.0" text-anchor="end" class="small">0</text>
<line x1="75" y1="335.0" x2="465" y2="335.0" class="grid"/>
<text x="65" y="339.0" text-anchor="end" class="small">16</text>
<line x1="75" y1="255.0" x2="465" y2="255.0" class="grid"/>
<text x="65" y="259.0" text-anchor="end" class="small">32</text>
<line x1="75" y1="175.0" x2="465" y2="175.0" class="grid"/>
<text x="65" y="179.0" text-anchor="end" class="small">48</text>
<line x1="75" y1="95.0" x2="465" y2="95.0" class="grid"/>
<text x="65" y="99.0" text-anchor="end" class="small">64</text>
<line x1="75" y1="95" x2="75" y2="415" class="axis"/>
<line x1="75" y1="415" x2="465" y2="415" class="axis"/>
<rect x="149.0" y="180.0" width="42" height="235.0" fill="#1971c2"/>
<text x="170.0" y="173.0" text-anchor="middle" class="small">47.0</text>
<rect x="199.0" y="330.0" width="42" height="85.0" fill="#868e96"/>
<text x="220.0" y="323.0" text-anchor="middle" class="small">17.0</text>
<text x="195" y="445" text-anchor="middle" class="label">BLACK</text>
<rect x="299.0" y="190.0" width="42" height="225.0" fill="#1971c2"/>
<text x="320.0" y="183.0" text-anchor="middle" class="small">45.0</text>
<rect x="349.0" y="320.0" width="42" height="95.0" fill="#868e96"/>
<text x="370.0" y="313.0" text-anchor="middle" class="small">19.0</text>
<text x="345" y="445" text-anchor="middle" class="label">WHITE</text>
<text x="270.0" y="485" text-anchor="middle" class="label" font-weight="700">Average Final Score</text>
<line x1="565" y1="415.0" x2="865" y2="415.0" class="grid"/>
<text x="555" y="419.0" text-anchor="end" class="small">0</text>
<line x1="565" y1="308.3" x2="865" y2="308.3" class="grid"/>
<text x="555" y="312.3" text-anchor="end" class="small">10</text>
<line x1="565" y1="201.7" x2="865" y2="201.7" class="grid"/>
<text x="555" y="205.7" text-anchor="end" class="small">20</text>
<line x1="565" y1="95.0" x2="865" y2="95.0" class="grid"/>
<text x="555" y="99.0" text-anchor="end" class="small">30</text>
<line x1="565" y1="95" x2="565" y2="415" class="axis"/>
<line x1="565" y1="415" x2="865" y2="415" class="axis"/>
<rect x="620" y="95.0" width="70" height="320.0" fill="#1971c2"/>
<text x="655" y="88.0" text-anchor="middle" class="small">+30.0</text>
<text x="655" y="445" text-anchor="middle" class="label">BLACK</text>
<rect x="740" y="137.7" width="70" height="277.3" fill="#12b886"/>
<text x="775" y="130.7" text-anchor="middle" class="small">+26.0</text>
<text x="775" y="445" text-anchor="middle" class="label">WHITE</text>
<text x="715.0" y="485" text-anchor="middle" class="label" font-weight="700">Average MyPlayer Diff</text>
<rect x="350" y="462" width="14" height="14" fill="#1971c2"/><text x="370" y="474" class="small">MyPlayer</text>
<rect x="450" y="462" width="14" height="14" fill="#868e96"/><text x="470" y="474" class="small">Opponent</text>
</svg>
