<svg xmlns="http://www.w3.org/2000/svg" width="1040" height="330" viewBox="0 0 1040 330">
  <rect width="100%" height="100%" fill="#ffffff"/>
  <style>
    text { font-family: Arial, sans-serif; fill: #212529; }
    .title { font-size: 24px; font-weight: 700; }
    .label { font-size: 14px; }
    .small { font-size: 12px; fill: #495057; }
    .axis { stroke: #495057; stroke-width: 1; }
    .grid { stroke: #dee2e6; stroke-width: 1; }
  </style>
<text x="520.0" y="42" text-anchor="middle" class="title">Evaluation Summary Table</text>
<rect x="45" y="82" width="90" height="52" fill="#f1f3f5" stroke="#dee2e6"/>
<text x="90.0" y="114" text-anchor="middle" class="small" font-weight="700">Side</text>
<rect x="135" y="82" width="90" height="52" fill="#f1f3f5" stroke="#dee2e6"/>
<text x="180.0" y="114" text-anchor="middle" class="small" font-weight="700">Games</text>
<rect x="225" y="82" width="100" height="52" fill="#f1f3f5" stroke="#dee2e6"/>
<text x="275.0" y="114" text-anchor="middle" class="small" font-weight="700">W-L-D</text>
<rect x="325" y="82" width="110" height="52" fill="#f1f3f5" stroke="#dee2e6"/>
<text x="380.0" y="114" text-anchor="middle" class="small" font-weight="700">Win Rate</text>
<rect x="435" y="82" width="130" height="52" fill="#f1f3f5" stroke="#dee2e6"/>
<text x="500.0" y="114" text-anchor="middle" class="small" font-weight="700">Avg Score</text>
<rect x="565" y="82" width="110" height="52" fill="#f1f3f5" stroke="#dee2e6"/>
<text x="620.0" y="114" text-anchor="middle" class="small" font-weight="700">Avg Diff</text>
<rect x="675" y="82" width="110" height="52" fill="#f1f3f5" stroke="#dee2e6"/>
<text x="730.0" y="114" text-anchor="middle" class="small" font-weight="700">Sec/Game</text>
<rect x="785" y="82" width="230" height="52" fill="#f1f3f5" stroke="#dee2e6"/>
<text x="900.0" y="114" text-anchor="middle" class="small" font-weight="700">Slowest Move</text>
<rect x="45" y="134" width="90" height="52" fill="#ffffff" stroke="#dee2e6"/>
<text x="90.0" y="166" text-anchor="middle" class="small">BLACK</text>
<rect x="135" y="134" width="90" height="52" fill="#ffffff" stroke="#dee2e6"/>
<text x="180.0" y="166" text-anchor="middle" class="small">100</text>
<rect x="225" y="134" width="100" height="52" fill="#ffffff" stroke="#dee2e6"/>
<text x="275.0" y="166" text-anchor="middle" class="small">100-0-0</text>
<rect x="325" y="134" width="110" height="52" fill="#ffffff" stroke="#dee2e6"/>
<text x="380.0" y="166" text-anchor="middle" class="small">100.0%</text>
<rect x="435" y="134" width="130" height="52" fill="#ffffff" stroke="#dee2e6"/>
<text x="500.0" y="166" text-anchor="middle" class="small">47.0-17.0</text>
<rect x="565" y="134" width="110" height="52" fill="#ffffff" stroke="#dee2e6"/>
<text x="620.0" y="166" text-anchor="middle" class="small">+30.0</text>
<rect x="675" y="134" width="110" height="52" fill="#ffffff" stroke="#dee2e6"/>
<text x="730.0" y="166" text-anchor="middle" class="small">11.43s</text>
<rect x="785" y="134" width="230" height="52" fill="#ffffff" stroke="#dee2e6"/>
<text x="900.0" y="166" text-anchor="middle" class="small">G48 T23 990.6ms</text>
<rect x="45" y="186" width="90" height="52" fill="#ffffff" stroke="#dee2e6"/>
<text x="90.0" y="218" text-anchor="middle" class="small">WHITE</text>
<rect x="135" y="186" width="90" height="52" fill="#ffffff" stroke="#dee2e6"/>
<text x="180.0" y="218" text-anchor="middle" class="small">100</text>
<rect x="225" y="186" width="100" height="52" fill="#ffffff" stroke="#dee2e6"/>
<text x="275.0" y="218" text-anchor="middle" class="small">100-0-0</text>
<rect x="325" y="186" width="110" height="52" fill="#ffffff" stroke="#dee2e6"/>
<text x="380.0" y="218" text-anchor="middle" class="small">100.0%</text>
<rect x="435" y="186" width="130" height="52" fill="#ffffff" stroke="#dee2e6"/>
<text x="500.0" y="218" text-anchor="middle" class="small">45.0-19.0</text>
<rect x="565" y="186" width="110" height="52" fill="#ffffff" stroke="#dee2e6"/>
<text x="620.0" y="218" text-anchor="middle" class="small">+26.0</text>
<rect x="675" y="186" width="110" height="52" fill="#ffffff" stroke="#dee2e6"/>
<text x="730.0" y="218" text-anchor="middle" class="small">9.93s</text>
<rect x="785" y="186" width="230" height="52" fill="#ffffff" stroke="#dee2e6"/>
<text x="900.0" y="218" text-anchor="middle" class="small">G90 T20 973.1ms</text>
<rect x="45" y="238" width="90" height="52" fill="#f8f9fa" stroke="#dee2e6"/>
<text x="90.0" y="270" text-anchor="middle" class="small">TOTAL</text>
<rect x="135" y="238" width="90" height="52" fill="#f8f9fa" stroke="#dee2e6"/>
<text x="180.0" y="270" text-anchor="middle" class="small">200</text>
<rect x="225" y="238" width="100" height="52" fill="#f8f9fa" stroke="#dee2e6"/>
<text x="275.0" y="270" text-anchor="middle" class="small">200-0-0</text>
<rect x="325" y="238" width="110" height="52" fill="#f8f9fa" stroke="#dee2e6"/>
<text x="380.0" y="270" text-anchor="middle" class="small">100.0%</text>
<rect x="435" y="238" width="130" height="52" fill="#f8f9fa" stroke="#dee2e6"/>
<text x="500.0" y="270" text-anchor="middle" class="small">-</text>
<rect x="565" y="238" width="110" height="52" fill="#f8f9fa" stroke="#dee2e6"/>
<text x="620.0" y="270" text-anchor="middle" class="small">+28.0</text>
<rect x="675" y="238" width="110" height="52" fill="#f8f9fa" stroke="#dee2e6"/>
<text x="730.0" y="270" text-anchor="middle" class="small">-</text>
<rect x="785" y="238" width="230" height="52" fill="#f8f9fa" stroke="#dee2e6"/>
<text x="900.0" y="270" text-anchor="middle" class="small">G48 T23 990.6ms</text>
</svg>
